<?xml version="1.0" standalone="no"?>
<!DOCTYPE svg PUBLIC "-//W3C//DTD SVG 20010904//EN"
 "http://www.w3.org/TR/2001/REC-SVG-20010904/DTD/svg10.dtd">
<svg version="1.0" xmlns="http://www.w3.org/2000/svg"
 width="700.000000pt" height="700.000000pt" viewBox="0 0 700.000000 700.000000"
 preserveAspectRatio="xMidYMid meet">
<metadata>
Created by potrace 1.14, written by Peter Selinger 2001-2017
</metadata>
<g transform="translate(0.000000,700.000000) scale(0.100000,-0.100000)"
fill="#000000" stroke="none">
<path d="M2160 6979 c-270 -70 -465 -266 -540 -544 -11 -41 -14 -542 -15
-2905 0 -1570 3 -2881 7 -2912 39 -289 271 -535 568 -604 19 -5 607 -9 1305
-10 1366 -3 1323 -4 1454 49 134 54 257 153 334 269 56 84 103 202 115 288 3
25 6 1332 6 2905 0 3100 4 2893 -54 3035 -34 85 -87 164 -157 234 -89 90 -175
142 -308 187 l-70 24 -1285 2 c-1242 1 -1288 1 -1360 -18z m2806 -3224 l0
-2325 -1466 0 -1466 0 0 2325 0 2325 1466 0 1466 0 0 -2325z m-1341 -2769
c185 -84 224 -336 74 -477 -184 -173 -491 -38 -491 216 0 214 220 352 417 261z"/>
</g>
</svg>
